<svg width="227" height="40" viewBox="0 0 227 40" fill="none" xmlns="http://www.w3.org/2000/svg">
<path d="M20 40C31.0457 40 40 31.0457 40 20C40 8.9543 31.0457 0 20 0C8.9543 0 0 8.9543 0 20C0 31.0457 8.9543 40 20 40Z" fill="#6A66FF"/>
<path d="M16.6015 7.70915C16.4302 7.70954 16.2639 7.76711 16.129 7.87274C15.9942 7.97836 15.8984 8.12599 15.8569 8.29222L13.5908 17.4384C13.5628 17.5515 13.5609 17.6695 13.5852 17.7835C13.6095 17.8975 13.6595 18.0045 13.7312 18.0963C13.8029 18.1882 13.8945 18.2626 13.9992 18.3138C14.1039 18.3651 14.2188 18.3919 14.3354 18.3922H16.6492L13.6446 24.6076C13.5882 24.7248 13.5623 24.8544 13.5696 24.9843C13.5768 25.1142 13.6169 25.2402 13.6861 25.3504C13.7552 25.4606 13.8512 25.5514 13.9651 25.6144C14.0789 25.6774 14.2068 25.7106 14.3369 25.7107H16.7077L14.34 31.2245C14.2713 31.3873 14.2607 31.5689 14.31 31.7386C14.3593 31.9083 14.4656 32.0558 14.6109 32.1563C14.7563 32.2569 14.9318 32.3044 15.108 32.2907C15.2842 32.2771 15.4503 32.2032 15.5785 32.0815L26.1938 21.8353C26.3043 21.7289 26.3803 21.5919 26.4123 21.4419C26.4443 21.2919 26.4308 21.1358 26.3734 20.9936C26.316 20.8514 26.2174 20.7296 26.0903 20.6438C25.9632 20.558 25.8133 20.5122 25.66 20.5122H22.6446L25.6446 14.2984C25.7017 14.1813 25.7281 14.0516 25.7213 13.9215C25.7145 13.7914 25.6749 13.6652 25.606 13.5547C25.5371 13.4441 25.4413 13.3529 25.3275 13.2895C25.2137 13.2261 25.0856 13.1926 24.9554 13.1922H22.4338L23.7138 8.68453C23.7456 8.57022 23.7506 8.45011 23.7282 8.33359C23.7059 8.21706 23.6569 8.10728 23.5851 8.01283C23.5133 7.91838 23.4206 7.84182 23.3143 7.78914C23.208 7.73646 23.091 7.70908 22.9723 7.70915H16.6015ZM17.2062 9.24453H21.9538L20.6769 13.7538C20.6443 13.8681 20.6387 13.9885 20.6605 14.1054C20.6823 14.2222 20.7308 14.3325 20.8024 14.4275C20.8739 14.5224 20.9665 14.5995 21.0729 14.6526C21.1793 14.7058 21.2965 14.7336 21.4154 14.7338H23.7262L20.7231 20.9491C20.667 21.0662 20.6415 21.1955 20.6488 21.325C20.6562 21.4546 20.6962 21.5802 20.7651 21.6901C20.8341 21.8001 20.9297 21.8908 21.0431 21.9538C21.1566 22.0169 21.2841 22.0502 21.4138 22.0507H23.7569L17.2615 28.3184L18.58 25.2445C18.63 25.1278 18.6504 25.0006 18.6393 24.8741C18.6282 24.7476 18.5859 24.6258 18.5163 24.5197C18.4467 24.4135 18.3518 24.3262 18.2403 24.2656C18.1287 24.2049 18.0039 24.1729 17.8769 24.1722H15.5646L18.5692 17.9553C18.626 17.8381 18.6521 17.7085 18.6451 17.5785C18.6381 17.4485 18.5982 17.3224 18.5292 17.2121C18.4602 17.1017 18.3642 17.0106 18.2504 16.9474C18.1366 16.8842 18.0086 16.8509 17.8785 16.8507H15.3231L17.2077 9.24299L17.2062 9.24453Z" fill="white"/>
<path d="M70.0341 20.2727C70.0341 22.2159 69.6563 23.8551 68.9006 25.1903C68.1449 26.5199 67.125 27.5284 65.8409 28.2159C64.5568 28.8977 63.125 29.2386 61.5455 29.2386C59.9546 29.2386 58.5171 28.8949 57.233 28.2074C55.9546 27.5142 54.9375 26.5028 54.1818 25.1733C53.4318 23.8381 53.0568 22.2045 53.0568 20.2727C53.0568 18.3295 53.4318 16.6932 54.1818 15.3636C54.9375 14.0284 55.9546 13.0199 57.233 12.3381C58.5171 11.6506 59.9546 11.3068 61.5455 11.3068C63.125 11.3068 64.5568 11.6506 65.8409 12.3381C67.125 13.0199 68.1449 14.0284 68.9006 15.3636C69.6563 16.6932 70.0341 18.3295 70.0341 20.2727ZM65.1591 20.2727C65.1591 19.2273 65.0199 18.3466 64.7415 17.6307C64.4688 16.9091 64.0625 16.3636 63.5227 15.9943C62.9886 15.6193 62.3296 15.4318 61.5455 15.4318C60.7614 15.4318 60.0994 15.6193 59.5597 15.9943C59.0256 16.3636 58.6193 16.9091 58.3409 17.6307C58.0682 18.3466 57.9318 19.2273 57.9318 20.2727C57.9318 21.3182 58.0682 22.2017 58.3409 22.9233C58.6193 23.6392 59.0256 24.1847 59.5597 24.5597C60.0994 24.929 60.7614 25.1136 61.5455 25.1136C62.3296 25.1136 62.9886 24.929 63.5227 24.5597C64.0625 24.1847 64.4688 23.6392 64.7415 22.9233C65.0199 22.2017 65.1591 21.3182 65.1591 20.2727Z" fill="black"/>
<path d="M79.3025 29H72.5866V11.5455H79.2343C81.0297 11.5455 82.5809 11.8949 83.8877 12.5938C85.2002 13.2869 86.2116 14.2869 86.9218 15.5938C87.6377 16.8949 87.9957 18.4545 87.9957 20.2727C87.9957 22.0909 87.6405 23.6534 86.9303 24.9602C86.2201 26.2614 85.2144 27.2614 83.9133 27.9602C82.6121 28.6534 81.0752 29 79.3025 29ZM77.3252 24.9773H79.132C79.9957 24.9773 80.7315 24.8381 81.3394 24.5597C81.953 24.2813 82.419 23.8011 82.7371 23.1193C83.061 22.4375 83.2229 21.4886 83.2229 20.2727C83.2229 19.0568 83.0582 18.108 82.7286 17.4261C82.4048 16.7443 81.9275 16.2642 81.2968 15.9858C80.6718 15.7074 79.9047 15.5682 78.9957 15.5682H77.3252V24.9773Z" fill="black"/>
<path d="M97.264 29H90.5481V11.5455H97.1959C98.9913 11.5455 100.542 11.8949 101.849 12.5938C103.162 13.2869 104.173 14.2869 104.883 15.5938C105.599 16.8949 105.957 18.4545 105.957 20.2727C105.957 22.0909 105.602 23.6534 104.892 24.9602C104.182 26.2614 103.176 27.2614 101.875 27.9602C100.574 28.6534 99.0368 29 97.264 29ZM95.2868 24.9773H97.0936C97.9572 24.9773 98.693 24.8381 99.301 24.5597C99.9146 24.2813 100.381 23.8011 100.699 23.1193C101.023 22.4375 101.184 21.4886 101.184 20.2727C101.184 19.0568 101.02 18.108 100.69 17.4261C100.366 16.7443 99.889 16.2642 99.2584 15.9858C98.6334 15.7074 97.8663 15.5682 96.9572 15.5682H95.2868V24.9773Z" fill="black"/>
<path d="M117.919 17C117.873 16.4318 117.66 15.9886 117.28 15.6705C116.905 15.3523 116.334 15.1932 115.567 15.1932C115.078 15.1932 114.677 15.2528 114.365 15.3722C114.058 15.4858 113.831 15.642 113.683 15.8409C113.535 16.0398 113.459 16.267 113.453 16.5227C113.442 16.733 113.478 16.9233 113.564 17.0938C113.655 17.2585 113.797 17.4091 113.99 17.5455C114.183 17.6761 114.43 17.7955 114.731 17.9034C115.032 18.0114 115.39 18.108 115.805 18.1932L117.237 18.5C118.203 18.7045 119.03 18.9744 119.717 19.3097C120.405 19.6449 120.967 20.0398 121.405 20.4943C121.842 20.9432 122.163 21.4489 122.368 22.0114C122.578 22.5739 122.686 23.1875 122.692 23.8523C122.686 25 122.399 25.9716 121.831 26.767C121.263 27.5625 120.45 28.1676 119.393 28.5824C118.342 28.9972 117.078 29.2045 115.601 29.2045C114.084 29.2045 112.76 28.9801 111.629 28.5312C110.504 28.0824 109.629 27.392 109.004 26.4602C108.385 25.5227 108.072 24.3239 108.067 22.8636H112.567C112.595 23.3977 112.728 23.8466 112.967 24.2102C113.206 24.5739 113.541 24.8494 113.973 25.0369C114.41 25.2244 114.93 25.3182 115.532 25.3182C116.038 25.3182 116.461 25.2557 116.802 25.1307C117.143 25.0057 117.402 24.8324 117.578 24.6108C117.754 24.3892 117.845 24.1364 117.851 23.8523C117.845 23.5852 117.757 23.3523 117.586 23.1534C117.422 22.9489 117.149 22.767 116.768 22.608C116.388 22.4432 115.873 22.2898 115.226 22.1477L113.487 21.7727C111.942 21.4375 110.723 20.8778 109.831 20.0938C108.944 19.304 108.504 18.2273 108.51 16.8636C108.504 15.7557 108.799 14.7869 109.396 13.9574C109.998 13.1222 110.831 12.4716 111.893 12.0057C112.961 11.5398 114.186 11.3068 115.567 11.3068C116.976 11.3068 118.194 11.5426 119.223 12.0142C120.251 12.4858 121.044 13.1506 121.601 14.0085C122.163 14.8608 122.447 15.858 122.453 17H117.919Z" fill="black"/>
<path d="M124.854 29V11.5455H129.593V18.6023H129.831L135.081 11.5455H140.604L134.706 19.3182L140.74 29H135.081L131.161 22.4545L129.593 24.5V29H124.854Z" fill="black"/>
<path d="M142.37 29V11.5455H149.904C151.2 11.5455 152.333 11.7812 153.305 12.2528C154.277 12.7244 155.032 13.4034 155.572 14.2898C156.112 15.1761 156.382 16.2386 156.382 17.4773C156.382 18.7273 156.103 19.7812 155.546 20.6392C154.995 21.4972 154.22 22.1449 153.22 22.5824C152.225 23.0199 151.064 23.2386 149.734 23.2386H145.234V19.5568H148.779C149.336 19.5568 149.811 19.4886 150.203 19.3523C150.6 19.2102 150.904 18.9858 151.115 18.679C151.331 18.3722 151.439 17.9716 151.439 17.4773C151.439 16.9773 151.331 16.571 151.115 16.2585C150.904 15.9403 150.6 15.7074 150.203 15.5597C149.811 15.4062 149.336 15.3295 148.779 15.3295H147.109V29H142.37ZM152.598 20.9886L156.961 29H151.814L147.552 20.9886H152.598Z" fill="black"/>
<path d="M163.296 29H158.182L163.943 11.5455H170.421L176.182 29H171.068L167.25 16.3523H167.114L163.296 29ZM162.341 22.1136H171.955V25.6591H162.341V22.1136Z" fill="black"/>
<path d="M178.223 29V11.5455H182.962V18.6023H183.2L188.45 11.5455H193.973L188.075 19.3182L194.109 29H188.45L184.53 22.4545L182.962 24.5V29H178.223Z" fill="black"/>
<path d="M195.739 29V11.5455H208.319V15.3636H200.478V18.3636H207.671V22.1818H200.478V25.1818H208.285V29H195.739Z" fill="black"/>
<path d="M226.131 11.5455V29H222.177L215.87 19.8295H215.768V29H211.029V11.5455H215.052L221.256 20.6818H221.393V11.5455H226.131Z" fill="black"/>
</svg>
